<svg width="24" height="24" viewBox="0 0 24 24" fill="none" xmlns="http://www.w3.org/2000/svg">
<path d="M5.32361 18.6975C4.93309 18.307 4.93309 17.6738 5.32361 17.2833L17.3019 5.30507C17.6924 4.91455 18.3255 4.91455 18.7161 5.30507C19.1066 5.69559 19.1066 6.32876 18.7161 6.71928L6.73782 18.6975C6.3473 19.088 5.71413 19.088 5.32361 18.6975Z" fill="#717989"/>
<path d="M5.25188 5.30958C4.86135 5.7001 4.86135 6.33327 5.25188 6.72379L17.2284 18.7004C17.6189 19.0909 18.2521 19.0909 18.6426 18.7004C19.0331 18.3099 19.0331 17.6767 18.6426 17.2862L6.66609 5.30958C6.27557 4.91906 5.6424 4.91906 5.25188 5.30958Z" fill="#717989"/>
</svg>
